<svg width="32" height="36" viewBox="0 0 32 36" xmlns="http://www.w3.org/2000/svg" role="img" aria-label="Beside Me 烟盒">
  <defs>
    <linearGradient id="paper" x1="0" x2="1" y1="0" y2="1">
      <stop offset="0" stop-color="#fffefb"/>
      <stop offset="0.7" stop-color="#f4f0e8"/>
      <stop offset="1" stop-color="#ddd5c7"/>
    </linearGradient>
    <linearGradient id="side" x1="0" x2="1" y1="0" y2="1">
      <stop offset="0" stop-color="#f4eee4"/>
      <stop offset="1" stop-color="#cfc4b5"/>
    </linearGradient>
  </defs>
  <g transform="translate(1 0)">
    <rect x="16.8" y="0.8" width="3.2" height="9.2" rx="1.3" fill="#f8f2e8" stroke="#111" stroke-width="0.9"/>
    <rect x="16.8" y="0.8" width="3.2" height="2.3" rx="1.1" fill="#d2ad70" stroke="#111" stroke-width="0.7"/>
    <polygon points="6,7 21,10 25.5,8 10.5,5" fill="#111" stroke="#111" stroke-width="0.9" stroke-linejoin="round"/>
    <polygon points="6,7 21,10 21,31 6,28" fill="url(#paper)" stroke="#111" stroke-width="0.9" stroke-linejoin="round"/>
    <polygon points="21,10 25.5,8 25.5,29 21,31" fill="url(#side)" stroke="#111" stroke-width="0.9" stroke-linejoin="round"/>
    <path d="M6 7 L21 10 L21 16 C18.5 15.3 16.2 15.4 14.3 16.2 C12.5 17 11.3 19.1 9.5 19 C7.8 18.9 6.6 17 6 15.4 Z" fill="#111"/>
    <path d="M8 11.3 C7.8 14.7 7.1 17.4 6.3 19.3" fill="none" stroke="#fff" stroke-width="0.9" opacity="0.9"/>
    <path d="M14.7 10.2 C14.2 12.3 13.9 14.6 13.9 17" fill="none" stroke="#fff" stroke-width="0.8" opacity="0.75"/>
    <polygon points="11.8,9.1 17.2,10.2 18.7,6.9 13.4,5.8" fill="#f7f1e7" stroke="#111" stroke-width="0.7"/>
    <polygon points="11.8,7.8 17.2,8.9 18.7,6.7 13.4,5.6" fill="#111" opacity="0.24"/>
    <polygon points="8.7,23.5 18.7,25.7 18.7,30.1 8.7,27.9" fill="none" stroke="#111" stroke-width="0.65" opacity="0.7"/>
    <path d="M9.7 24.8 L17.7 26.5 M9.7 26.4 L17.7 28.1 M9.7 27.8 L16.6 29.3" stroke="#111" stroke-width="0.5" opacity="0.48"/>
    <text x="13.8" y="20.9" transform="rotate(9 13.8 20.9)" text-anchor="middle" font-family="'Segoe Print', 'Comic Sans MS', cursive" font-size="3.8" font-weight="700" fill="#111">BesideMe</text>
  </g>
</svg>